<mxfile host="Electron" modified="2024-09-22T15:49:52.676Z" agent="Mozilla/5.0 (Macintosh; Intel Mac OS X 10_15_7) AppleWebKit/537.36 (KHTML, like Gecko) draw.io/24.6.4 Chrome/124.0.6367.207 Electron/30.0.6 Safari/537.36" etag="uPWsJmHAYvwjxJOl69QY" version="24.6.4" type="device">
  <diagram name="Page-1" id="9f46799a-70d6-7492-0946-bef42562c5a5">
    <mxGraphModel dx="26085" dy="2193" grid="1" gridSize="10" guides="1" tooltips="1" connect="1" arrows="1" fold="1" page="1" pageScale="1" pageWidth="1100" pageHeight="850" background="none" math="0" shadow="0">
      <root>
        <mxCell id="0" />
        <mxCell id="1" parent="0" />
        <mxCell id="MDSD9C8HlGCSsr5I18_H-237" value="" style="group;fontSize=19;" vertex="1" connectable="0" parent="1">
          <mxGeometry x="40" y="40" width="2090" height="1570" as="geometry" />
        </mxCell>
        <mxCell id="MDSD9C8HlGCSsr5I18_H-238" value="&lt;font style=&quot;font-size: 30px;&quot;&gt;/src&lt;/font&gt;" style="swimlane;whiteSpace=wrap;html=1;align=right;fontSize=19;" vertex="1" parent="MDSD9C8HlGCSsr5I18_H-237">
          <mxGeometry y="194.38095238095238" width="2090" height="717.7142857142858" as="geometry" />
        </mxCell>
        <mxCell id="MDSD9C8HlGCSsr5I18_H-239" value="course_selector.py" style="swimlane;whiteSpace=wrap;html=1;fontSize=21;" vertex="1" parent="MDSD9C8HlGCSsr5I18_H-238">
          <mxGeometry x="65.8267716535433" y="59.80952380952382" width="329.1338582677165" height="254.19047619047623" as="geometry" />
        </mxCell>
        <mxCell id="MDSD9C8HlGCSsr5I18_H-240" value="Class_Name: &lt;b&gt;CourseManager&lt;/b&gt;" style="text;html=1;align=center;verticalAlign=middle;whiteSpace=wrap;rounded=0;fontSize=21;" vertex="1" parent="MDSD9C8HlGCSsr5I18_H-239">
          <mxGeometry x="16.456692913385822" y="59.80952380952382" width="296.22047244094483" height="29.90476190476191" as="geometry" />
        </mxCell>
        <mxCell id="MDSD9C8HlGCSsr5I18_H-241" value="__init__(self,session)" style="text;html=1;align=center;verticalAlign=middle;whiteSpace=wrap;rounded=0;fontSize=21;" vertex="1" parent="MDSD9C8HlGCSsr5I18_H-239">
          <mxGeometry x="16.456692913385822" y="104.66666666666669" width="296.22047244094483" height="29.90476190476191" as="geometry" />
        </mxCell>
        <mxCell id="MDSD9C8HlGCSsr5I18_H-242" value="get_course_list(self)" style="text;html=1;align=center;verticalAlign=middle;whiteSpace=wrap;rounded=0;fillColor=#dae8fc;strokeColor=#6c8ebf;fontSize=21;" vertex="1" parent="MDSD9C8HlGCSsr5I18_H-239">
          <mxGeometry x="16.456692913385822" y="134.57142857142858" width="296.22047244094483" height="29.90476190476191" as="geometry" />
        </mxCell>
        <mxCell id="MDSD9C8HlGCSsr5I18_H-243" value="filter_courses(self)" style="text;html=1;align=center;verticalAlign=middle;whiteSpace=wrap;rounded=0;fontSize=21;" vertex="1" parent="MDSD9C8HlGCSsr5I18_H-239">
          <mxGeometry x="16.456692913385822" y="164.4761904761905" width="296.22047244094483" height="29.90476190476191" as="geometry" />
        </mxCell>
        <mxCell id="MDSD9C8HlGCSsr5I18_H-244" value="database.py" style="swimlane;whiteSpace=wrap;html=1;fontSize=21;" vertex="1" parent="MDSD9C8HlGCSsr5I18_H-238">
          <mxGeometry x="460.78740157480314" y="59.80952380952382" width="329.1338582677165" height="433.6190476190477" as="geometry" />
        </mxCell>
        <mxCell id="MDSD9C8HlGCSsr5I18_H-245" value="Class_Name: &lt;b&gt;Database&lt;/b&gt;" style="text;html=1;align=center;verticalAlign=middle;whiteSpace=wrap;rounded=0;fontSize=21;" vertex="1" parent="MDSD9C8HlGCSsr5I18_H-244">
          <mxGeometry x="16.456692913385822" y="59.80952380952382" width="296.22047244094483" height="29.90476190476191" as="geometry" />
        </mxCell>
        <mxCell id="MDSD9C8HlGCSsr5I18_H-246" style="edgeStyle=orthogonalEdgeStyle;rounded=0;orthogonalLoop=1;jettySize=auto;html=1;entryX=1;entryY=0.5;entryDx=0;entryDy=0;fontSize=21;" edge="1" parent="MDSD9C8HlGCSsr5I18_H-244" source="MDSD9C8HlGCSsr5I18_H-247" target="MDSD9C8HlGCSsr5I18_H-250">
          <mxGeometry relative="1" as="geometry">
            <Array as="points">
              <mxPoint x="345.5905511811023" y="119.61904761904763" />
              <mxPoint x="345.5905511811023" y="179.42857142857144" />
            </Array>
          </mxGeometry>
        </mxCell>
        <mxCell id="MDSD9C8HlGCSsr5I18_H-247" value="__init__(self,base_path)" style="text;html=1;align=center;verticalAlign=middle;whiteSpace=wrap;rounded=0;fontSize=21;" vertex="1" parent="MDSD9C8HlGCSsr5I18_H-244">
          <mxGeometry x="16.456692913385822" y="104.66666666666669" width="296.22047244094483" height="29.90476190476191" as="geometry" />
        </mxCell>
        <mxCell id="MDSD9C8HlGCSsr5I18_H-248" style="edgeStyle=orthogonalEdgeStyle;rounded=0;orthogonalLoop=1;jettySize=auto;html=1;exitX=1;exitY=0.5;exitDx=0;exitDy=0;entryX=1;entryY=0.5;entryDx=0;entryDy=0;fontSize=21;" edge="1" parent="MDSD9C8HlGCSsr5I18_H-244" source="MDSD9C8HlGCSsr5I18_H-249" target="MDSD9C8HlGCSsr5I18_H-253">
          <mxGeometry relative="1" as="geometry">
            <Array as="points">
              <mxPoint x="339" y="150" />
              <mxPoint x="339" y="209" />
            </Array>
          </mxGeometry>
        </mxCell>
        <mxCell id="MDSD9C8HlGCSsr5I18_H-249" value="start_db(self)" style="text;html=1;align=center;verticalAlign=middle;whiteSpace=wrap;rounded=0;fillColor=#ffe6cc;strokeColor=#d79b00;fontSize=21;" vertex="1" parent="MDSD9C8HlGCSsr5I18_H-244">
          <mxGeometry x="16.456692913385822" y="134.57142857142858" width="296.22047244094483" height="29.90476190476191" as="geometry" />
        </mxCell>
        <mxCell id="MDSD9C8HlGCSsr5I18_H-250" value="&lt;span style=&quot;color: rgba(0, 0, 0, 0); font-family: monospace; font-size: 21px; text-align: start; text-wrap: nowrap;&quot;&gt;%3CmxGraphModel%3E%3Croot%3E%3CmxCell%20id%3D%220%22%2F%3E%3CmxCell%20id%3D%221%22%20parent%3D%220%22%2F%3E%3CmxCell%20id%3D%222%22%20value%3D%22course_selector.py%22%20style%3D%22swimlane%3BwhiteSpace%3Dwrap%3Bhtml%3D1%3B%22%20vertex%3D%221%22%20parent%3D%221%22%3E%3CmxGeometry%20x%3D%2270%22%20y%3D%2280%22%20width%3D%22200%22%20height%3D%22280%22%20as%3D%22geometry%22%2F%3E%3C%2FmxCell%3E%3CmxCell%20id%3D%223%22%20value%3D%22Class_Name%3A%20CourseManager%22%20style%3D%22text%3Bhtml%3D1%3Balign%3Dcenter%3BverticalAlign%3Dmiddle%3BwhiteSpace%3Dwrap%3Brounded%3D0%3B%22%20vertex%3D%221%22%20parent%3D%222%22%3E%3CmxGeometry%20x%3D%2210%22%20y%3D%2240%22%20width%3D%22180%22%20height%3D%2220%22%20as%3D%22geometry%22%2F%3E%3C%2FmxCell%3E%3CmxCell%20id%3D%224%22%20value%3D%22__init__(self%2Csession)%22%20style%3D%22text%3Bhtml%3D1%3Balign%3Dcenter%3BverticalAlign%3Dmiddle%3BwhiteSpace%3Dwrap%3Brounded%3D0%3B%22%20vertex%3D%221%22%20parent%3D%222%22%3E%3CmxGeometry%20x%3D%2210%22%20y%3D%2270%22%20width%3D%22180%22%20height%3D%2220%22%20as%3D%22geometry%22%2F%3E%3C%2FmxCell%3E%3CmxCell%20id%3D%225%22%20value%3D%22get_course_list(self)%22%20style%3D%22text%3Bhtml%3D1%3Balign%3Dcenter%3BverticalAlign%3Dmiddle%3BwhiteSpace%3Dwrap%3Brounded%3D0%3B%22%20vertex%3D%221%22%20parent%3D%222%22%3E%3CmxGeometry%20x%3D%2210%22%20y%3D%2290%22%20width%3D%22180%22%20height%3D%2220%22%20as%3D%22geometry%22%2F%3E%3C%2FmxCell%3E%3CmxCell%20id%3D%226%22%20value%3D%22filter_courses(self)%22%20style%3D%22text%3Bhtml%3D1%3Balign%3Dcenter%3BverticalAlign%3Dmiddle%3BwhiteSpace%3Dwrap%3Brounded%3D0%3B%22%20vertex%3D%221%22%20parent%3D%222%22%3E%3CmxGeometry%20x%3D%2210%22%20y%3D%22110%22%20width%3D%22180%22%20height%3D%2220%22%20as%3D%22geometry%22%2F%3E%3C%2FmxCell%3E%3C%2Froot%3E%3C%2FmxGraphModel%3E&lt;/span&gt;&lt;span style=&quot;color: rgba(0, 0, 0, 0); font-family: monospace; font-size: 21px; text-align: start; text-wrap: nowrap;&quot;&gt;%3CmxGraphModel%3E%3Croot%3E%3CmxCell%20id%3D%220%22%2F%3E%3CmxCell%20id%3D%221%22%20parent%3D%220%22%2F%3E%3CmxCell%20id%3D%222%22%20value%3D%22course_selector.py%22%20style%3D%22swimlane%3BwhiteSpace%3Dwrap%3Bhtml%3D1%3B%22%20vertex%3D%221%22%20parent%3D%221%22%3E%3CmxGeometry%20x%3D%2270%22%20y%3D%2280%22%20width%3D%22200%22%20height%3D%22280%22%20as%3D%22geometry%22%2F%3E%3C%2FmxCell%3E%3CmxCell%20id%3D%223%22%20value%3D%22Class_Name%3A%20CourseManager%22%20style%3D%22text%3Bhtml%3D1%3Balign%3Dcenter%3BverticalAlign%3Dmiddle%3BwhiteSpace%3Dwrap%3Brounded%3D0%3B%22%20vertex%3D%221%22%20parent%3D%222%22%3E%3CmxGeometry%20x%3D%2210%22%20y%3D%2240%22%20width%3D%22180%22%20height%3D%2220%22%20as%3D%22geometry%22%2F%3E%3C%2FmxCell%3E%3CmxCell%20id%3D%224%22%20value%3D%22__init__(self%2Csession)%22%20style%3D%22text%3Bhtml%3D1%3Balign%3Dcenter%3BverticalAlign%3Dmiddle%3BwhiteSpace%3Dwrap%3Brounded%3D0%3B%22%20vertex%3D%221%22%20parent%3D%222%22%3E%3CmxGeometry%20x%3D%2210%22%20y%3D%2270%22%20width%3D%22180%22%20height%3D%2220%22%20as%3D%22geometry%22%2F%3E%3C%2FmxCell%3E%3CmxCell%20id%3D%225%22%20value%3D%22get_course_list(self)%22%20style%3D%22text%3Bhtml%3D1%3Balign%3Dcenter%3BverticalAlign%3Dmiddle%3BwhiteSpace%3Dwrap%3Brounded%3D0%3B%22%20vertex%3D%221%22%20parent%3D%222%22%3E%3CmxGeometry%20x%3D%2210%22%20y%3D%2290%22%20width%3D%22180%22%20height%3D%2220%22%20as%3D%22geometry%22%2F%3E%3C%2FmxCell%3E%3CmxCell%20id%3D%226%22%20value%3D%22filter_courses(self)%22%20style%3D%22text%3Bhtml%3D1%3Balign%3Dcenter%3BverticalAlign%3Dmiddle%3BwhiteSpace%3Dwrap%3Brounded%3D0%3B%22%20vertex%3D%221%22%20parent%3D%222%22%3E%3CmxGeometry%20x%3D%2210%22%20y%3D%22110%22%20width%3D%22180%22%20height%3D%2220%22%20as%3D%22geometry%22%2F%3E%3C%2FmxCell%3E%3C%2Froot%3E%3C%2FmxGraphModel%3E&lt;/span&gt;get_first_run(self)" style="text;html=1;align=center;verticalAlign=middle;whiteSpace=wrap;rounded=0;fontSize=21;" vertex="1" parent="MDSD9C8HlGCSsr5I18_H-244">
          <mxGeometry x="16.456692913385822" y="164.4761904761905" width="296.22047244094483" height="29.90476190476191" as="geometry" />
        </mxCell>
        <mxCell id="MDSD9C8HlGCSsr5I18_H-251" value="add_file(self)" style="text;html=1;align=center;verticalAlign=middle;whiteSpace=wrap;rounded=0;fontSize=21;" vertex="1" parent="MDSD9C8HlGCSsr5I18_H-244">
          <mxGeometry x="16.456692913385822" y="254.19047619047623" width="296.22047244094483" height="29.90476190476191" as="geometry" />
        </mxCell>
        <mxCell id="MDSD9C8HlGCSsr5I18_H-252" value="check_file_status(self)" style="text;html=1;align=center;verticalAlign=middle;whiteSpace=wrap;rounded=0;fontSize=21;" vertex="1" parent="MDSD9C8HlGCSsr5I18_H-244">
          <mxGeometry x="16.456692913385822" y="224.28571428571433" width="296.22047244094483" height="29.90476190476191" as="geometry" />
        </mxCell>
        <mxCell id="MDSD9C8HlGCSsr5I18_H-253" value="connect(self)" style="text;html=1;align=center;verticalAlign=middle;whiteSpace=wrap;rounded=0;fontSize=21;" vertex="1" parent="MDSD9C8HlGCSsr5I18_H-244">
          <mxGeometry x="16.456692913385822" y="194.3809523809524" width="296.22047244094483" height="29.90476190476191" as="geometry" />
        </mxCell>
        <mxCell id="MDSD9C8HlGCSsr5I18_H-254" style="edgeStyle=orthogonalEdgeStyle;rounded=0;orthogonalLoop=1;jettySize=auto;html=1;exitX=1;exitY=0.5;exitDx=0;exitDy=0;entryX=1;entryY=0.5;entryDx=0;entryDy=0;fontSize=21;" edge="1" parent="MDSD9C8HlGCSsr5I18_H-244" source="MDSD9C8HlGCSsr5I18_H-256" target="MDSD9C8HlGCSsr5I18_H-257">
          <mxGeometry relative="1" as="geometry">
            <mxPoint x="362.0472440944881" y="328.952380952381" as="targetPoint" />
            <Array as="points">
              <mxPoint x="345.5905511811023" y="358.8571428571429" />
              <mxPoint x="345.5905511811023" y="328.952380952381" />
            </Array>
          </mxGeometry>
        </mxCell>
        <mxCell id="MDSD9C8HlGCSsr5I18_H-255" style="edgeStyle=orthogonalEdgeStyle;rounded=0;orthogonalLoop=1;jettySize=auto;html=1;exitX=1;exitY=0.5;exitDx=0;exitDy=0;entryX=1;entryY=0.5;entryDx=0;entryDy=0;fontSize=21;" edge="1" parent="MDSD9C8HlGCSsr5I18_H-244" source="MDSD9C8HlGCSsr5I18_H-256" target="MDSD9C8HlGCSsr5I18_H-258">
          <mxGeometry relative="1" as="geometry">
            <Array as="points">
              <mxPoint x="339" y="359" />
              <mxPoint x="339" y="299" />
            </Array>
          </mxGeometry>
        </mxCell>
        <mxCell id="MDSD9C8HlGCSsr5I18_H-256" value="write_records(self)" style="text;html=1;align=center;verticalAlign=middle;whiteSpace=wrap;rounded=0;fillColor=#ffe6cc;strokeColor=#d79b00;fontSize=21;" vertex="1" parent="MDSD9C8HlGCSsr5I18_H-244">
          <mxGeometry x="16.456692913385822" y="343.904761904762" width="296.22047244094483" height="29.90476190476191" as="geometry" />
        </mxCell>
        <mxCell id="MDSD9C8HlGCSsr5I18_H-257" value="get_new_cursor(self)" style="text;html=1;align=center;verticalAlign=middle;whiteSpace=wrap;rounded=0;fontSize=21;" vertex="1" parent="MDSD9C8HlGCSsr5I18_H-244">
          <mxGeometry x="16.456692913385822" y="314.00000000000006" width="296.22047244094483" height="29.90476190476191" as="geometry" />
        </mxCell>
        <mxCell id="MDSD9C8HlGCSsr5I18_H-258" value="apply_changes_and_close(self)" style="text;html=1;align=center;verticalAlign=middle;whiteSpace=wrap;rounded=0;fontSize=21;" vertex="1" parent="MDSD9C8HlGCSsr5I18_H-244">
          <mxGeometry x="16.456692913385822" y="284.09523809523813" width="296.22047244094483" height="29.90476190476191" as="geometry" />
        </mxCell>
        <mxCell id="MDSD9C8HlGCSsr5I18_H-259" value="downloader.py" style="swimlane;whiteSpace=wrap;html=1;fontSize=19;" vertex="1" parent="MDSD9C8HlGCSsr5I18_H-238">
          <mxGeometry x="1086.1417322834645" y="52.33333333333334" width="888.6614173228346" height="613.0476190476192" as="geometry" />
        </mxCell>
        <mxCell id="MDSD9C8HlGCSsr5I18_H-260" value="Class_Name: &lt;b&gt;Downloader&lt;/b&gt;" style="text;html=1;align=center;verticalAlign=middle;whiteSpace=wrap;rounded=0;fontSize=21;" vertex="1" parent="MDSD9C8HlGCSsr5I18_H-259">
          <mxGeometry x="16.456692913385826" y="59.80952380952382" width="855.7480314960629" height="29.90476190476191" as="geometry" />
        </mxCell>
        <mxCell id="MDSD9C8HlGCSsr5I18_H-261" style="edgeStyle=orthogonalEdgeStyle;rounded=0;orthogonalLoop=1;jettySize=auto;html=1;exitX=1;exitY=0.5;exitDx=0;exitDy=0;entryX=1;entryY=0.5;entryDx=0;entryDy=0;fontSize=21;" edge="1" parent="MDSD9C8HlGCSsr5I18_H-259" source="MDSD9C8HlGCSsr5I18_H-262" target="MDSD9C8HlGCSsr5I18_H-267">
          <mxGeometry relative="1" as="geometry">
            <Array as="points">
              <mxPoint x="904" y="120" />
              <mxPoint x="904" y="209" />
            </Array>
          </mxGeometry>
        </mxCell>
        <mxCell id="MDSD9C8HlGCSsr5I18_H-262" value="__init__(self,session)" style="text;html=1;align=center;verticalAlign=middle;whiteSpace=wrap;rounded=0;fontSize=21;" vertex="1" parent="MDSD9C8HlGCSsr5I18_H-259">
          <mxGeometry x="16.456692913385826" y="104.66666666666669" width="855.7480314960629" height="29.90476190476191" as="geometry" />
        </mxCell>
        <mxCell id="MDSD9C8HlGCSsr5I18_H-263" value="set_directory(self)" style="text;html=1;align=center;verticalAlign=middle;whiteSpace=wrap;rounded=0;fillColor=#ffe6cc;strokeColor=#d79b00;fontSize=21;" vertex="1" parent="MDSD9C8HlGCSsr5I18_H-259">
          <mxGeometry x="16.456692913385826" y="134.57142857142858" width="855.7480314960629" height="29.90476190476191" as="geometry" />
        </mxCell>
        <mxCell id="MDSD9C8HlGCSsr5I18_H-264" value="get_directory(self)" style="text;html=1;align=center;verticalAlign=middle;whiteSpace=wrap;rounded=0;fontSize=21;" vertex="1" parent="MDSD9C8HlGCSsr5I18_H-259">
          <mxGeometry x="16.456692913385826" y="164.4761904761905" width="855.7480314960629" height="29.90476190476191" as="geometry" />
        </mxCell>
        <mxCell id="MDSD9C8HlGCSsr5I18_H-265" style="edgeStyle=orthogonalEdgeStyle;rounded=0;orthogonalLoop=1;jettySize=auto;html=1;exitX=1;exitY=0.5;exitDx=0;exitDy=0;entryX=1;entryY=0.5;entryDx=0;entryDy=0;fontSize=21;" edge="1" parent="MDSD9C8HlGCSsr5I18_H-259" source="MDSD9C8HlGCSsr5I18_H-266" target="MDSD9C8HlGCSsr5I18_H-272">
          <mxGeometry relative="1" as="geometry">
            <Array as="points">
              <mxPoint x="904" y="239" />
              <mxPoint x="904" y="336" />
            </Array>
          </mxGeometry>
        </mxCell>
        <mxCell id="MDSD9C8HlGCSsr5I18_H-266" value="download_all_in_course(self, course, db_instance, first_run)" style="text;html=1;align=center;verticalAlign=middle;whiteSpace=wrap;rounded=0;fillColor=#ffe6cc;strokeColor=#d79b00;fontSize=21;" vertex="1" parent="MDSD9C8HlGCSsr5I18_H-259">
          <mxGeometry x="16.456692913385826" y="224.28571428571433" width="855.7480314960629" height="29.90476190476191" as="geometry" />
        </mxCell>
        <mxCell id="MDSD9C8HlGCSsr5I18_H-267" value="session_copy(self)" style="text;html=1;align=center;verticalAlign=middle;whiteSpace=wrap;rounded=0;fontSize=21;" vertex="1" parent="MDSD9C8HlGCSsr5I18_H-259">
          <mxGeometry x="16.456692913385826" y="194.3809523809524" width="855.7480314960629" height="29.90476190476191" as="geometry" />
        </mxCell>
        <mxCell id="MDSD9C8HlGCSsr5I18_H-268" value="get_mb_file_size_from_string(self, raw_file_size)" style="text;html=1;align=center;verticalAlign=middle;whiteSpace=wrap;rounded=0;fontSize=21;" vertex="1" parent="MDSD9C8HlGCSsr5I18_H-259">
          <mxGeometry x="16.456692913385826" y="254.19047619047623" width="855.7480314960629" height="29.90476190476191" as="geometry" />
        </mxCell>
        <mxCell id="MDSD9C8HlGCSsr5I18_H-269" style="edgeStyle=orthogonalEdgeStyle;rounded=0;orthogonalLoop=1;jettySize=auto;html=1;exitX=1;exitY=0.75;exitDx=0;exitDy=0;entryX=1;entryY=0.5;entryDx=0;entryDy=0;fontSize=21;" edge="1" parent="MDSD9C8HlGCSsr5I18_H-259" source="MDSD9C8HlGCSsr5I18_H-272" target="MDSD9C8HlGCSsr5I18_H-274">
          <mxGeometry relative="1" as="geometry">
            <mxPoint x="938.0314960629921" y="343.904761904762" as="targetPoint" />
            <Array as="points">
              <mxPoint x="872.2047244094488" y="306.5238095238096" />
              <mxPoint x="921.5748031496063" y="306.5238095238096" />
              <mxPoint x="921.5748031496063" y="403.7142857142858" />
            </Array>
          </mxGeometry>
        </mxCell>
        <mxCell id="MDSD9C8HlGCSsr5I18_H-270" style="edgeStyle=orthogonalEdgeStyle;rounded=0;orthogonalLoop=1;jettySize=auto;html=1;exitX=1;exitY=0.25;exitDx=0;exitDy=0;entryX=1;entryY=0.5;entryDx=0;entryDy=0;fontSize=21;" edge="1" parent="MDSD9C8HlGCSsr5I18_H-259" source="MDSD9C8HlGCSsr5I18_H-272" target="MDSD9C8HlGCSsr5I18_H-278">
          <mxGeometry relative="1" as="geometry">
            <Array as="points">
              <mxPoint x="872.2047244094488" y="358.8571428571429" />
              <mxPoint x="905.1181102362204" y="358.8571428571429" />
              <mxPoint x="905.1181102362204" y="433.6190476190477" />
            </Array>
          </mxGeometry>
        </mxCell>
        <mxCell id="MDSD9C8HlGCSsr5I18_H-271" style="edgeStyle=orthogonalEdgeStyle;rounded=0;orthogonalLoop=1;jettySize=auto;html=1;exitX=1;exitY=0;exitDx=0;exitDy=0;entryX=1;entryY=0.5;entryDx=0;entryDy=0;fontSize=19;" edge="1" parent="MDSD9C8HlGCSsr5I18_H-259" source="MDSD9C8HlGCSsr5I18_H-272" target="MDSD9C8HlGCSsr5I18_H-276">
          <mxGeometry relative="1" as="geometry">
            <Array as="points">
              <mxPoint x="938.0314960629921" y="284.09523809523813" />
              <mxPoint x="938.0314960629921" y="463.5238095238096" />
            </Array>
          </mxGeometry>
        </mxCell>
        <mxCell id="MDSD9C8HlGCSsr5I18_H-272" value="download_or_traverse(self,raw_html, destination_folder,&amp;nbsp;&lt;span style=&quot;background-color: initial; font-size: 21px;&quot;&gt;db_instance,&amp;nbsp;&lt;/span&gt;&lt;span style=&quot;background-color: initial; font-size: 21px;&quot;&gt;first_run)&lt;/span&gt;" style="text;html=1;align=center;verticalAlign=middle;whiteSpace=wrap;rounded=0;fillColor=#f8cecc;fillStyle=solid;strokeColor=#b85450;fontSize=21;" vertex="1" parent="MDSD9C8HlGCSsr5I18_H-259">
          <mxGeometry x="16.456692913385826" y="284.09523809523813" width="855.7480314960629" height="104.66666666666669" as="geometry" />
        </mxCell>
        <mxCell id="MDSD9C8HlGCSsr5I18_H-273" style="edgeStyle=orthogonalEdgeStyle;rounded=0;orthogonalLoop=1;jettySize=auto;html=1;entryX=0;entryY=0.25;entryDx=0;entryDy=0;fontSize=21;" edge="1" parent="MDSD9C8HlGCSsr5I18_H-259" source="MDSD9C8HlGCSsr5I18_H-274" target="MDSD9C8HlGCSsr5I18_H-268">
          <mxGeometry relative="1" as="geometry">
            <Array as="points">
              <mxPoint x="-26" y="404" />
              <mxPoint x="-26" y="262" />
            </Array>
          </mxGeometry>
        </mxCell>
        <mxCell id="MDSD9C8HlGCSsr5I18_H-274" value="parse_file_info(self,row)" style="text;html=1;align=center;verticalAlign=middle;whiteSpace=wrap;rounded=0;fontSize=21;" vertex="1" parent="MDSD9C8HlGCSsr5I18_H-259">
          <mxGeometry x="16.456692913385826" y="388.7619047619048" width="855.7480314960629" height="29.90476190476191" as="geometry" />
        </mxCell>
        <mxCell id="MDSD9C8HlGCSsr5I18_H-275" style="edgeStyle=orthogonalEdgeStyle;rounded=0;orthogonalLoop=1;jettySize=auto;html=1;entryX=0;entryY=0.5;entryDx=0;entryDy=0;fontSize=21;" edge="1" parent="MDSD9C8HlGCSsr5I18_H-259" source="MDSD9C8HlGCSsr5I18_H-276" target="MDSD9C8HlGCSsr5I18_H-279">
          <mxGeometry relative="1" as="geometry">
            <mxPoint x="-16.456692913385826" y="418.66666666666674" as="targetPoint" />
            <Array as="points">
              <mxPoint x="-16.456692913385826" y="463.5238095238096" />
              <mxPoint x="-16.456692913385826" y="493.4285714285715" />
            </Array>
          </mxGeometry>
        </mxCell>
        <mxCell id="MDSD9C8HlGCSsr5I18_H-276" value="download_file(self, file_url, destination_folder, cursor, db_instance, first_run)" style="text;html=1;align=center;verticalAlign=middle;whiteSpace=wrap;rounded=0;fontSize=21;" vertex="1" parent="MDSD9C8HlGCSsr5I18_H-259">
          <mxGeometry x="16.456692913385826" y="448.57142857142867" width="855.7480314960629" height="29.90476190476191" as="geometry" />
        </mxCell>
        <mxCell id="MDSD9C8HlGCSsr5I18_H-277" style="edgeStyle=orthogonalEdgeStyle;rounded=0;orthogonalLoop=1;jettySize=auto;html=1;exitX=0;exitY=0.5;exitDx=0;exitDy=0;entryX=0;entryY=0.5;entryDx=0;entryDy=0;fontSize=21;" edge="1" parent="MDSD9C8HlGCSsr5I18_H-259" source="MDSD9C8HlGCSsr5I18_H-278" target="MDSD9C8HlGCSsr5I18_H-272">
          <mxGeometry relative="1" as="geometry">
            <Array as="points">
              <mxPoint x="-16" y="434" />
              <mxPoint x="-16" y="336" />
            </Array>
          </mxGeometry>
        </mxCell>
        <mxCell id="MDSD9C8HlGCSsr5I18_H-278" value="traverse_folder(self, folder_url, current_folder, new_folder_name, db_instance, first_run)" style="text;html=1;align=center;verticalAlign=middle;whiteSpace=wrap;rounded=0;fontSize=21;" vertex="1" parent="MDSD9C8HlGCSsr5I18_H-259">
          <mxGeometry x="16.456692913385826" y="418.66666666666674" width="855.7480314960629" height="29.90476190476191" as="geometry" />
        </mxCell>
        <mxCell id="MDSD9C8HlGCSsr5I18_H-279" value="download_from_server(self, session, file_url)" style="text;html=1;align=center;verticalAlign=middle;whiteSpace=wrap;rounded=0;fontSize=21;" vertex="1" parent="MDSD9C8HlGCSsr5I18_H-259">
          <mxGeometry x="16.456692913385826" y="478.47619047619054" width="855.7480314960629" height="29.90476190476191" as="geometry" />
        </mxCell>
        <mxCell id="MDSD9C8HlGCSsr5I18_H-280" value="login.py" style="swimlane;whiteSpace=wrap;html=1;fontSize=19;" vertex="1" parent="MDSD9C8HlGCSsr5I18_H-238">
          <mxGeometry x="65.8267716535433" y="373.80952380952385" width="329.1338582677165" height="299.0476190476191" as="geometry" />
        </mxCell>
        <mxCell id="MDSD9C8HlGCSsr5I18_H-281" value="Class_Name: &lt;b&gt;Login&lt;/b&gt;" style="text;html=1;align=center;verticalAlign=middle;whiteSpace=wrap;rounded=0;fontSize=21;" vertex="1" parent="MDSD9C8HlGCSsr5I18_H-280">
          <mxGeometry x="16.456692913385822" y="59.80952380952382" width="296.22047244094483" height="29.90476190476191" as="geometry" />
        </mxCell>
        <mxCell id="MDSD9C8HlGCSsr5I18_H-282" value="__init__(self,username,password)" style="text;html=1;align=center;verticalAlign=middle;whiteSpace=wrap;rounded=0;fontSize=21;" vertex="1" parent="MDSD9C8HlGCSsr5I18_H-280">
          <mxGeometry x="16.456692913385822" y="104.66666666666669" width="296.22047244094483" height="29.90476190476191" as="geometry" />
        </mxCell>
        <mxCell id="MDSD9C8HlGCSsr5I18_H-283" value="check_connectivity(self)" style="text;html=1;align=center;verticalAlign=middle;whiteSpace=wrap;rounded=0;fillColor=#d5e8d4;strokeColor=#82b366;fontSize=21;" vertex="1" parent="MDSD9C8HlGCSsr5I18_H-280">
          <mxGeometry x="16.456692913385822" y="134.57142857142858" width="296.22047244094483" height="29.90476190476191" as="geometry" />
        </mxCell>
        <mxCell id="MDSD9C8HlGCSsr5I18_H-284" style="edgeStyle=orthogonalEdgeStyle;rounded=0;orthogonalLoop=1;jettySize=auto;html=1;entryX=1;entryY=0.5;entryDx=0;entryDy=0;fontSize=19;" edge="1" parent="MDSD9C8HlGCSsr5I18_H-280" source="MDSD9C8HlGCSsr5I18_H-285" target="MDSD9C8HlGCSsr5I18_H-286">
          <mxGeometry relative="1" as="geometry">
            <mxPoint x="345.5905511811023" y="224.28571428571433" as="targetPoint" />
            <Array as="points">
              <mxPoint x="345.5905511811023" y="179.42857142857144" />
              <mxPoint x="345.5905511811023" y="216.80952380952385" />
            </Array>
          </mxGeometry>
        </mxCell>
        <mxCell id="MDSD9C8HlGCSsr5I18_H-285" value="login(self)" style="text;html=1;align=center;verticalAlign=middle;whiteSpace=wrap;rounded=0;fillColor=#d5e8d4;strokeColor=#82b366;fontSize=21;" vertex="1" parent="MDSD9C8HlGCSsr5I18_H-280">
          <mxGeometry x="16.456692913385822" y="164.4761904761905" width="296.22047244094483" height="29.90476190476191" as="geometry" />
        </mxCell>
        <mxCell id="MDSD9C8HlGCSsr5I18_H-286" value="_login_request(self, session,&lt;div style=&quot;font-size: 19px;&quot;&gt;post data, page)&lt;/div&gt;" style="text;html=1;align=center;verticalAlign=middle;whiteSpace=wrap;rounded=0;fontSize=19;" vertex="1" parent="MDSD9C8HlGCSsr5I18_H-280">
          <mxGeometry x="16.456692913385822" y="194.3809523809524" width="296.22047244094483" height="44.85714285714286" as="geometry" />
        </mxCell>
        <mxCell id="MDSD9C8HlGCSsr5I18_H-287" value="manager.py" style="swimlane;whiteSpace=wrap;html=1;fontSize=19;" vertex="1" parent="MDSD9C8HlGCSsr5I18_H-238">
          <mxGeometry x="460.78740157480314" y="553.2380952380953" width="329.1338582677165" height="119.61904761904763" as="geometry" />
        </mxCell>
        <mxCell id="MDSD9C8HlGCSsr5I18_H-288" value="Class_Name: &lt;b&gt;Manager(Enum)&lt;/b&gt;" style="text;html=1;align=center;verticalAlign=middle;whiteSpace=wrap;rounded=0;fontSize=21;" vertex="1" parent="MDSD9C8HlGCSsr5I18_H-287">
          <mxGeometry x="16.456692913385822" y="59.80952380952382" width="296.22047244094483" height="29.90476190476191" as="geometry" />
        </mxCell>
        <mxCell id="MDSD9C8HlGCSsr5I18_H-289" value="&lt;font style=&quot;font-size: 30px;&quot;&gt;/ui&lt;/font&gt;" style="swimlane;whiteSpace=wrap;html=1;align=right;fontSize=19;" vertex="1" parent="MDSD9C8HlGCSsr5I18_H-237">
          <mxGeometry y="1016.7619047619048" width="921.5748031496063" height="553.2380952380953" as="geometry">
            <mxRectangle x="40" y="590" width="50" height="30" as="alternateBounds" />
          </mxGeometry>
        </mxCell>
        <mxCell id="MDSD9C8HlGCSsr5I18_H-290" value="guiFront.py" style="swimlane;whiteSpace=wrap;html=1;fontSize=20;" vertex="1" parent="MDSD9C8HlGCSsr5I18_H-289">
          <mxGeometry x="65.8267716535433" y="59.80952380952382" width="329.1338582677165" height="254.19047619047623" as="geometry" />
        </mxCell>
        <mxCell id="MDSD9C8HlGCSsr5I18_H-291" value="Class_Name: &lt;b&gt;Ui_Arsivci(object)&lt;/b&gt;" style="text;html=1;align=center;verticalAlign=middle;whiteSpace=wrap;rounded=0;fontSize=20;" vertex="1" parent="MDSD9C8HlGCSsr5I18_H-290">
          <mxGeometry x="16.456692913385822" y="59.80952380952382" width="296.22047244094483" height="29.90476190476191" as="geometry" />
        </mxCell>
        <mxCell id="MDSD9C8HlGCSsr5I18_H-292" style="edgeStyle=orthogonalEdgeStyle;rounded=0;orthogonalLoop=1;jettySize=auto;html=1;entryX=1;entryY=0.5;entryDx=0;entryDy=0;fontSize=20;" edge="1" parent="MDSD9C8HlGCSsr5I18_H-290" source="MDSD9C8HlGCSsr5I18_H-293" target="MDSD9C8HlGCSsr5I18_H-294">
          <mxGeometry relative="1" as="geometry">
            <Array as="points">
              <mxPoint x="345.5905511811023" y="127.09523809523812" />
              <mxPoint x="345.5905511811023" y="179.42857142857144" />
            </Array>
          </mxGeometry>
        </mxCell>
        <mxCell id="MDSD9C8HlGCSsr5I18_H-293" value="setupUi(self, Arsivci)" style="text;html=1;align=center;verticalAlign=middle;whiteSpace=wrap;rounded=0;fontSize=20;" vertex="1" parent="MDSD9C8HlGCSsr5I18_H-290">
          <mxGeometry x="16.456692913385822" y="112.14285714285717" width="296.22047244094483" height="29.90476190476191" as="geometry" />
        </mxCell>
        <mxCell id="MDSD9C8HlGCSsr5I18_H-294" value="retranslateUi(self, Arsivci)" style="text;html=1;align=center;verticalAlign=middle;whiteSpace=wrap;rounded=0;fontSize=20;" vertex="1" parent="MDSD9C8HlGCSsr5I18_H-290">
          <mxGeometry x="16.456692913385822" y="164.4761904761905" width="296.22047244094483" height="29.90476190476191" as="geometry" />
        </mxCell>
        <mxCell id="MDSD9C8HlGCSsr5I18_H-295" value="mainApp.py" style="swimlane;whiteSpace=wrap;html=1;fontSize=20;" vertex="1" parent="MDSD9C8HlGCSsr5I18_H-289">
          <mxGeometry x="477.244094488189" y="59.80952380952382" width="345.59055118110234" height="433.6190476190477" as="geometry" />
        </mxCell>
        <mxCell id="MDSD9C8HlGCSsr5I18_H-296" value="Class_Name: &lt;b&gt;&lt;font style=&quot;font-size: 19px;&quot;&gt;MainApp(QWidgets.QMainWindow)&lt;/font&gt;&lt;/b&gt;" style="text;html=1;align=center;verticalAlign=middle;whiteSpace=wrap;rounded=0;fontSize=20;" vertex="1" parent="MDSD9C8HlGCSsr5I18_H-295">
          <mxGeometry x="16.456692913385826" y="59.80952380952382" width="296.2204724409449" height="44.85714285714286" as="geometry" />
        </mxCell>
        <mxCell id="MDSD9C8HlGCSsr5I18_H-297" value="__init__(self)" style="text;html=1;align=center;verticalAlign=middle;whiteSpace=wrap;rounded=0;fontSize=20;" vertex="1" parent="MDSD9C8HlGCSsr5I18_H-295">
          <mxGeometry x="16.456692913385826" y="104.66666666666669" width="296.2204724409449" height="29.90476190476191" as="geometry" />
        </mxCell>
        <mxCell id="MDSD9C8HlGCSsr5I18_H-298" value="show_message(self, message, title)" style="text;html=1;align=center;verticalAlign=middle;whiteSpace=wrap;rounded=0;fontSize=20;" vertex="1" parent="MDSD9C8HlGCSsr5I18_H-295">
          <mxGeometry x="8.228346456692913" y="284.09523809523813" width="329.1338582677165" height="29.90476190476191" as="geometry" />
        </mxCell>
        <mxCell id="MDSD9C8HlGCSsr5I18_H-299" style="edgeStyle=orthogonalEdgeStyle;rounded=0;orthogonalLoop=1;jettySize=auto;html=1;entryX=0;entryY=0.5;entryDx=0;entryDy=0;fontSize=20;" edge="1" parent="MDSD9C8HlGCSsr5I18_H-295" source="MDSD9C8HlGCSsr5I18_H-300" target="MDSD9C8HlGCSsr5I18_H-305">
          <mxGeometry relative="1" as="geometry">
            <Array as="points">
              <mxPoint x="-47" y="269" />
              <mxPoint x="-47" y="209" />
            </Array>
          </mxGeometry>
        </mxCell>
        <mxCell id="MDSD9C8HlGCSsr5I18_H-300" value="download(self)" style="text;html=1;align=center;verticalAlign=middle;whiteSpace=wrap;rounded=0;fillColor=#ffe6cc;strokeColor=#d79b00;fontSize=20;" vertex="1" parent="MDSD9C8HlGCSsr5I18_H-295">
          <mxGeometry x="24.68503937007874" y="254.19047619047623" width="296.2204724409449" height="29.90476190476191" as="geometry" />
        </mxCell>
        <mxCell id="MDSD9C8HlGCSsr5I18_H-301" style="edgeStyle=orthogonalEdgeStyle;rounded=0;orthogonalLoop=1;jettySize=auto;html=1;entryX=1;entryY=0.5;entryDx=0;entryDy=0;fontSize=20;" edge="1" parent="MDSD9C8HlGCSsr5I18_H-295" source="MDSD9C8HlGCSsr5I18_H-302" target="MDSD9C8HlGCSsr5I18_H-303">
          <mxGeometry relative="1" as="geometry">
            <Array as="points">
              <mxPoint x="353.81889763779526" y="149.52380952380955" />
              <mxPoint x="353.81889763779526" y="179.42857142857144" />
            </Array>
          </mxGeometry>
        </mxCell>
        <mxCell id="MDSD9C8HlGCSsr5I18_H-302" value="login(self)" style="text;html=1;align=center;verticalAlign=middle;whiteSpace=wrap;rounded=0;fillColor=#d5e8d4;strokeColor=#82b366;fontSize=20;" vertex="1" parent="MDSD9C8HlGCSsr5I18_H-295">
          <mxGeometry x="24.68503937007874" y="134.57142857142858" width="296.2204724409449" height="29.90476190476191" as="geometry" />
        </mxCell>
        <mxCell id="MDSD9C8HlGCSsr5I18_H-303" value="load_courses(self)" style="text;html=1;align=center;verticalAlign=middle;whiteSpace=wrap;rounded=0;fillColor=#dae8fc;strokeColor=#6c8ebf;fontSize=20;" vertex="1" parent="MDSD9C8HlGCSsr5I18_H-295">
          <mxGeometry x="24.68503937007874" y="164.4761904761905" width="296.2204724409449" height="29.90476190476191" as="geometry" />
        </mxCell>
        <mxCell id="MDSD9C8HlGCSsr5I18_H-304" value="select_folder(self)" style="text;html=1;align=center;verticalAlign=middle;whiteSpace=wrap;rounded=0;fontSize=20;" vertex="1" parent="MDSD9C8HlGCSsr5I18_H-295">
          <mxGeometry x="24.68503937007874" y="224.28571428571433" width="296.2204724409449" height="29.90476190476191" as="geometry" />
        </mxCell>
        <mxCell id="MDSD9C8HlGCSsr5I18_H-305" value="select_courses(self)" style="text;html=1;align=center;verticalAlign=middle;whiteSpace=wrap;rounded=0;fontSize=20;" vertex="1" parent="MDSD9C8HlGCSsr5I18_H-295">
          <mxGeometry x="24.68503937007874" y="194.3809523809524" width="296.2204724409449" height="29.90476190476191" as="geometry" />
        </mxCell>
        <mxCell id="MDSD9C8HlGCSsr5I18_H-306" style="edgeStyle=orthogonalEdgeStyle;rounded=0;orthogonalLoop=1;jettySize=auto;html=1;entryX=1;entryY=0.25;entryDx=0;entryDy=0;fontSize=20;" edge="1" parent="MDSD9C8HlGCSsr5I18_H-289" source="MDSD9C8HlGCSsr5I18_H-297" target="MDSD9C8HlGCSsr5I18_H-293">
          <mxGeometry relative="1" as="geometry" />
        </mxCell>
        <mxCell id="MDSD9C8HlGCSsr5I18_H-307" value="&lt;font style=&quot;font-size: 30px;&quot;&gt;main.py&lt;/font&gt;" style="swimlane;whiteSpace=wrap;html=1;align=right;fontSize=19;" vertex="1" parent="MDSD9C8HlGCSsr5I18_H-237">
          <mxGeometry x="1234.251968503937" y="1016.7619047619048" width="855.7480314960629" height="343.9047619047619" as="geometry">
            <mxRectangle x="40" y="590" width="50" height="30" as="alternateBounds" />
          </mxGeometry>
        </mxCell>
        <mxCell id="MDSD9C8HlGCSsr5I18_H-308" value="&lt;div style=&quot;font-size: 32px;&quot;&gt;&lt;font style=&quot;font-size: 32px;&quot;&gt;if _name_ == &quot;_main_&quot;:&lt;/font&gt;&lt;/div&gt;&lt;div style=&quot;font-size: 32px;&quot;&gt;&lt;font style=&quot;font-size: 32px;&quot;&gt;&amp;nbsp; &amp;nbsp; app = QtWidgets.QApplication(sys.argv)&lt;/font&gt;&lt;/div&gt;&lt;div style=&quot;font-size: 32px;&quot;&gt;&lt;font style=&quot;font-size: 32px;&quot;&gt;&amp;nbsp; &amp;nbsp; main_window = MainApp()&lt;/font&gt;&lt;/div&gt;&lt;div style=&quot;font-size: 32px;&quot;&gt;&lt;font style=&quot;font-size: 32px;&quot;&gt;&amp;nbsp; &amp;nbsp; main_window.show()&lt;/font&gt;&lt;/div&gt;&lt;div style=&quot;font-size: 32px;&quot;&gt;&lt;font style=&quot;font-size: 32px;&quot;&gt;&amp;nbsp; &amp;nbsp; sys.exit(app.exec_())&lt;/font&gt;&lt;/div&gt;" style="text;html=1;align=left;verticalAlign=middle;resizable=0;points=[];autosize=1;strokeColor=none;fillColor=none;fontSize=32;" vertex="1" parent="MDSD9C8HlGCSsr5I18_H-307">
          <mxGeometry x="65.8267716535433" y="66.95428571428572" width="630" height="210" as="geometry" />
        </mxCell>
        <mxCell id="MDSD9C8HlGCSsr5I18_H-309" value="&lt;h1 style=&quot;&quot;&gt;&lt;font style=&quot;font-size: 40px;&quot;&gt;CHART OF NINOVA ARSIVCI v4.0&lt;/font&gt;&lt;/h1&gt;" style="text;html=1;align=center;verticalAlign=middle;resizable=0;points=[];autosize=1;strokeColor=none;fillColor=none;fontSize=19;" vertex="1" parent="MDSD9C8HlGCSsr5I18_H-237">
          <mxGeometry x="719.9961417322835" y="40" width="650" height="110" as="geometry" />
        </mxCell>
        <mxCell id="MDSD9C8HlGCSsr5I18_H-310" style="edgeStyle=orthogonalEdgeStyle;rounded=0;orthogonalLoop=1;jettySize=auto;html=1;exitX=1;exitY=0.5;exitDx=0;exitDy=0;entryX=0;entryY=0.5;entryDx=0;entryDy=0;fontSize=19;" edge="1" parent="MDSD9C8HlGCSsr5I18_H-237" source="MDSD9C8HlGCSsr5I18_H-300" target="MDSD9C8HlGCSsr5I18_H-263">
          <mxGeometry relative="1" as="geometry">
            <mxPoint x="822.8346456692914" y="747.6190476190476" as="targetPoint" />
            <Array as="points">
              <mxPoint x="980" y="1346" />
              <mxPoint x="980" y="396" />
            </Array>
          </mxGeometry>
        </mxCell>
        <mxCell id="MDSD9C8HlGCSsr5I18_H-311" style="edgeStyle=orthogonalEdgeStyle;rounded=0;orthogonalLoop=1;jettySize=auto;html=1;exitX=1;exitY=0.25;exitDx=0;exitDy=0;entryX=1;entryY=0.5;entryDx=0;entryDy=0;fontSize=19;" edge="1" parent="MDSD9C8HlGCSsr5I18_H-237" source="MDSD9C8HlGCSsr5I18_H-300" target="MDSD9C8HlGCSsr5I18_H-249">
          <mxGeometry relative="1" as="geometry">
            <mxPoint x="839.2913385826771" y="1241.047619047619" as="targetPoint" />
            <Array as="points">
              <mxPoint x="870" y="1338" />
              <mxPoint x="870" y="404" />
            </Array>
          </mxGeometry>
        </mxCell>
        <mxCell id="MDSD9C8HlGCSsr5I18_H-312" style="edgeStyle=orthogonalEdgeStyle;rounded=0;orthogonalLoop=1;jettySize=auto;html=1;exitX=1;exitY=0.75;exitDx=0;exitDy=0;entryX=0;entryY=0.5;entryDx=0;entryDy=0;fontSize=19;" edge="1" parent="MDSD9C8HlGCSsr5I18_H-237" source="MDSD9C8HlGCSsr5I18_H-300" target="MDSD9C8HlGCSsr5I18_H-266">
          <mxGeometry relative="1" as="geometry">
            <mxPoint x="839.2913385826773" y="1211.142857142857" as="targetPoint" />
            <Array as="points">
              <mxPoint x="1010" y="1353" />
              <mxPoint x="1010" y="486" />
            </Array>
          </mxGeometry>
        </mxCell>
        <mxCell id="MDSD9C8HlGCSsr5I18_H-313" style="edgeStyle=orthogonalEdgeStyle;rounded=0;orthogonalLoop=1;jettySize=auto;html=1;exitX=1;exitY=0;exitDx=0;exitDy=0;entryX=1;entryY=0.5;entryDx=0;entryDy=0;fontSize=19;" edge="1" parent="MDSD9C8HlGCSsr5I18_H-237" source="MDSD9C8HlGCSsr5I18_H-300" target="MDSD9C8HlGCSsr5I18_H-256">
          <mxGeometry relative="1" as="geometry">
            <mxPoint x="806.3779527559055" y="657.9047619047619" as="targetPoint" />
            <Array as="points">
              <mxPoint x="850" y="1331" />
              <mxPoint x="850" y="613" />
            </Array>
          </mxGeometry>
        </mxCell>
        <mxCell id="MDSD9C8HlGCSsr5I18_H-314" style="edgeStyle=orthogonalEdgeStyle;rounded=0;orthogonalLoop=1;jettySize=auto;html=1;entryX=1;entryY=0.25;entryDx=0;entryDy=0;fontSize=19;" edge="1" parent="MDSD9C8HlGCSsr5I18_H-237" source="MDSD9C8HlGCSsr5I18_H-302" target="MDSD9C8HlGCSsr5I18_H-285">
          <mxGeometry relative="1" as="geometry" />
        </mxCell>
        <mxCell id="MDSD9C8HlGCSsr5I18_H-315" style="edgeStyle=orthogonalEdgeStyle;rounded=0;orthogonalLoop=1;jettySize=auto;html=1;exitX=0;exitY=0.75;exitDx=0;exitDy=0;entryX=1;entryY=0.5;entryDx=0;entryDy=0;fontSize=19;" edge="1" parent="MDSD9C8HlGCSsr5I18_H-237" source="MDSD9C8HlGCSsr5I18_H-302" target="MDSD9C8HlGCSsr5I18_H-283">
          <mxGeometry relative="1" as="geometry">
            <mxPoint x="411.4173228346457" y="837.3333333333334" as="targetPoint" />
          </mxGeometry>
        </mxCell>
        <mxCell id="MDSD9C8HlGCSsr5I18_H-316" style="edgeStyle=orthogonalEdgeStyle;rounded=0;orthogonalLoop=1;jettySize=auto;html=1;entryX=1;entryY=0.5;entryDx=0;entryDy=0;fontSize=19;" edge="1" parent="MDSD9C8HlGCSsr5I18_H-237" source="MDSD9C8HlGCSsr5I18_H-303" target="MDSD9C8HlGCSsr5I18_H-242">
          <mxGeometry relative="1" as="geometry">
            <mxPoint x="444.3307086614173" y="837.3333333333334" as="targetPoint" />
            <Array as="points">
              <mxPoint x="427.87401574803147" y="1256" />
              <mxPoint x="427.87401574803147" y="403.7142857142857" />
            </Array>
          </mxGeometry>
        </mxCell>
        <mxCell id="MDSD9C8HlGCSsr5I18_H-317" style="edgeStyle=orthogonalEdgeStyle;rounded=0;orthogonalLoop=1;jettySize=auto;html=1;entryX=0.5;entryY=1;entryDx=0;entryDy=0;fontSize=19;" edge="1" parent="MDSD9C8HlGCSsr5I18_H-237" source="MDSD9C8HlGCSsr5I18_H-307" target="MDSD9C8HlGCSsr5I18_H-295">
          <mxGeometry relative="1" as="geometry">
            <Array as="points">
              <mxPoint x="650.0393700787401" y="1540.095238095238" />
            </Array>
          </mxGeometry>
        </mxCell>
      </root>
    </mxGraphModel>
  </diagram>
</mxfile>
